HIERARCHY
ROOT Hips
{
	OFFSET 0.000000 0.000000 0.000000
	CHANNELS 6 Xposition Yposition Zposition Zrotation Yrotation Xrotation 
	JOINT LHipJoint
	{
		OFFSET 0.000000 0.000000 0.000000
		CHANNELS 3 Zrotation Yrotation Xrotation
		JOINT LeftUpLeg
		{
			OFFSET 1.363060 -1.794630 0.839290
			CHANNELS 3 Zrotation Yrotation Xrotation
			JOINT LeftLeg
			{
				OFFSET 2.448110 -6.726130 0.000000
				CHANNELS 3 Zrotation Yrotation Xrotation
				JOINT LeftFoot
				{
					OFFSET 2.562200 -7.039590 0.000000
					CHANNELS 3 Zrotation Yrotation Xrotation
					JOINT LeftToeBase
					{
						OFFSET 0.157640 -0.433110 2.322550
						CHANNELS 3 Zrotation Yrotation Xrotation
						End Site
						{
							OFFSET 0.000000 0.000000 0.000000
						}
					}
				}
			}
		}
	}
	JOINT RHipJoint
	{
		OFFSET 0.000000 0.000000 0.000000
		CHANNELS 3 Zrotation Yrotation Xrotation
		JOINT RightUpLeg
		{
			OFFSET -1.305520 -1.794630 0.839290
			CHANNELS 3 Zrotation Yrotation Xrotation
			JOINT RightLeg
			{
				OFFSET -2.542530 -6.985550 0.000000
				CHANNELS 3 Zrotation Yrotation Xrotation
				JOINT RightFoot
				{
					OFFSET -2.568260 -7.056230 0.000000
					CHANNELS 3 Zrotation Yrotation Xrotation
					JOINT RightToeBase
					{
						OFFSET -0.164730 -0.452590 2.363150
						CHANNELS 3 Zrotation Yrotation Xrotation
						End Site
						{
							OFFSET 0.000000 0.000000 0.000000
						}
					}
				}
			}
		}
	}
	JOINT LowerBack
	{
		OFFSET 0.000000 0.000000 0.000000
		CHANNELS 3 Zrotation Yrotation Xrotation
		JOINT Spine
		{
			OFFSET 0.028270 2.035590 -0.193380
			CHANNELS 3 Zrotation Yrotation Xrotation
			JOINT Spine1
			{
				OFFSET 0.056720 2.048850 -0.042750
				CHANNELS 3 Zrotation Yrotation Xrotation
				JOINT Neck
				{
					OFFSET 0.000000 0.000000 0.000000
					CHANNELS 3 Zrotation Yrotation Xrotation
					JOINT Neck1
					{
						OFFSET -0.054170 1.746240 0.172020
						CHANNELS 3 Zrotation Yrotation Xrotation
						JOINT Head
						{
							OFFSET 0.104070 1.761360 -0.123970
							CHANNELS 3 Zrotation Yrotation Xrotation
							End Site
							{
								OFFSET 0.000000 0.000000 0.000000
							}
						}
					}
				}
				JOINT LeftShoulder
				{
					OFFSET 0.000000 0.000000 0.000000
					CHANNELS 3 Zrotation Yrotation Xrotation
					JOINT LeftArm
					{
						OFFSET 3.362410 1.200890 -0.311210
						CHANNELS 3 Zrotation Yrotation Xrotation
						JOINT LeftForeArm
						{
							OFFSET 4.983000 -0.000000 -0.000000
							CHANNELS 3 Zrotation Yrotation Xrotation
							JOINT LeftHand
							{
								OFFSET 3.483560 -0.000000 -0.000000
								CHANNELS 3 Zrotation Yrotation Xrotation
								JOINT LeftFingerBase
								{
									OFFSET 0.000000 0.000000 0.000000
									CHANNELS 3 Zrotation Yrotation Xrotation
									JOINT LeftHandIndex1
									{
										OFFSET 0.715260 -0.000000 -0.000000
										CHANNELS 3 Zrotation Yrotation Xrotation
										End Site
										{
											OFFSET 0.000000 0.000000 0.000000
										}
									}
								}
								JOINT LThumb
								{
									OFFSET 0.000000 0.000000 0.000000
									CHANNELS 3 Zrotation Yrotation Xrotation
									End Site
									{
										OFFSET 0.000000 0.000000 0.000000
									}
								}
							}
						}
					}
				}
				JOINT RightShoulder
				{
					OFFSET 0.000000 0.000000 0.000000
					CHANNELS 3 Zrotation Yrotation Xrotation
					JOINT RightArm
					{
						OFFSET -3.136600 1.374050 -0.404650
						CHANNELS 3 Zrotation Yrotation Xrotation
						JOINT RightForeArm
						{
							OFFSET -5.241900 -0.000000 -0.000000
							CHANNELS 3 Zrotation Yrotation Xrotation
							JOINT RightHand
							{
								OFFSET -3.444170 -0.000000 -0.000000
								CHANNELS 3 Zrotation Yrotation Xrotation
								JOINT RightFingerBase
								{
									OFFSET 0.000000 0.000000 0.000000
									CHANNELS 3 Zrotation Yrotation Xrotation
									JOINT RightHandIndex1
									{
										OFFSET -0.622530 -0.000000 -0.000000
										CHANNELS 3 Zrotation Yrotation Xrotation
										End Site
										{
											OFFSET 0.000000 0.000000 0.000000
										}
									}
								}
								JOINT RThumb
								{
									OFFSET 0.000000 0.000000 0.000000
									CHANNELS 3 Zrotation Yrotation Xrotation
									End Site
									{
										OFFSET 0.000000 0.000000 0.000000
									}
								}
							}
						}
					}
				}
			}
		}
	}
}
MOTION
Frames: 9
Frame Time: 0.008333
0.159286 17.958619 -10.266554 -6.282370 -3.454665 2.214968 0.092685 4.354224 2.722489 -9.013417 -9.964690 -30.814529 3.111445 12.121553 37.047593 -1.437811 6.844199 5.084769 0.008100 0.580600 1.595600 1.827382 -5.071921 5.196512 28.933076 9.894959 -4.813886 -0.933902 -5.634984 23.590038 0.636591 -3.318151 -2.422834 -0.057200 -1.542800 4.243800 4.636876 1.056647 6.202531 4.857147 2.056595 4.125453 -1.356574 0.867889 -8.809495 -5.266301 -4.678598 -15.748063 2.713136 -5.242784 20.880418 -0.405800 -2.163800 9.724100 -7.164449 2.943928 -1.233708 -81.162059 5.752227 27.272292 11.517137 -19.699153 -2.009250 -0.333385 -0.785272 -5.355745 27.508108 25.089731 13.000700 -7.125000 0.000000 0.000000 -2.158900 58.685500 -0.722600 11.036478 -1.667629 -2.361614 69.555233 6.314787 18.307521 -14.442513 27.771640 -4.218020 1.009266 -0.064136 -4.092808 -19.517565 20.119097 -7.340700 7.125000 0.000000 0.000000 5.071300 -8.669900 4.266100
0.160451 17.966385 -10.172810 -6.334173 -3.471428 2.302561 0.042169 4.331559 2.689533 -8.768464 -10.150769 -30.774375 2.806559 11.804430 35.889721 -1.413552 6.759971 4.968864 0.022457 0.919333 2.527379 1.854351 -5.086098 5.235078 28.954488 9.825752 -4.418238 -0.863743 -5.500832 23.194035 0.704671 -3.507968 -2.373787 -0.052414 -1.475577 4.058490 4.668364 1.082495 6.142022 4.867719 2.089279 4.102908 -1.366789 0.886982 -8.789340 -5.302964 -4.675587 -15.814148 2.758870 -5.228552 20.909586 -0.384821 -2.153672 9.746471 -7.166647 2.950953 -1.234646 -81.203075 5.803961 27.208148 11.456189 -19.611948 -1.988781 -0.346047 -0.782647 -4.784408 27.739583 25.089222 13.126132 -7.125000 0.000000 0.000000 -1.889060 58.741149 -0.634453 11.033723 -1.657241 -2.355555 69.486927 6.479067 18.497521 -14.519598 27.869207 -4.253199 1.011188 -0.058759 -4.169162 -19.675567 20.069141 -7.383327 7.125000 0.000000 0.000000 4.964288 -8.704235 4.171998
0.161874 17.973385 -10.078796 -6.393497 -3.498347 2.394359 -0.010263 4.308333 2.656030 -8.510936 -10.331970 -30.730623 2.494553 11.473078 34.687965 -1.390959 6.689554 4.929334 0.035775 1.218718 3.351011 1.881241 -5.099489 5.273971 28.978113 9.751863 -4.025905 -0.795127 -5.368498 22.805382 0.765221 -3.675037 -2.323661 -0.049199 -1.430654 3.934659 4.711103 1.112345 6.068916 4.879478 2.127097 4.091323 -1.382232 0.909227 -8.753532 -5.328974 -4.670023 -15.884870 2.784669 -5.209573 20.923429 -0.371297 -2.143352 9.764594 -7.169403 2.956796 -1.235438 -81.245440 5.831293 27.132172 11.383527 -19.505009 -1.964229 -0.357791 -0.779058 -4.328477 27.964640 24.999943 13.206172 -7.125000 0.000000 0.000000 -1.595644 58.697959 -0.535731 11.030219 -1.647112 -2.349895 69.421697 6.654496 18.680028 -14.600500 27.971701 -4.290897 1.011759 -0.054971 -4.234215 -19.785327 20.042423 -7.415470 7.125000 0.000000 0.000000 4.891054 -8.719715 4.108399
0.164315 17.977379 -9.983722 -6.482348 -3.565138 2.502664 -0.070218 4.282908 2.620377 -8.204037 -10.494021 -30.672746 2.154596 11.085864 33.313922 -1.374908 6.673359 5.189651 0.045013 1.363626 3.750067 1.907821 -5.109793 5.314145 29.010420 9.659598 -3.646584 -0.732571 -5.243299 22.445586 0.796211 -3.752799 -2.269299 -0.052148 -1.473280 4.052189 4.798018 1.157904 5.946360 4.895896 2.185068 4.122762 -1.418194 0.943845 -8.656275 -5.313157 -4.654435 -15.973798 2.732207 -5.171960 20.877103 -0.387046 -2.132278 9.766041 -7.174351 2.957995 -1.235654 -81.293103 5.762824 27.009750 11.264878 -19.320599 -1.923648 -0.365931 -0.771686 -4.325622 28.164502 24.562160 13.108008 -7.125000 0.000000 0.000000 -1.209665 58.266738 -0.395497 11.023776 -1.637996 -2.345799 69.368547 6.873694 18.833114 -14.696382 28.093541 -4.338487 1.007029 -0.057420 -4.254900 -19.705689 20.106934 -7.406455 7.125000 0.000000 0.000000 4.950431 -8.661173 4.164548
0.167341 17.975517 -9.889098 -6.586206 -3.659032 2.619029 -0.134125 4.253626 2.580724 -7.894524 -10.608319 -30.637752 1.800963 10.665010 31.831514 -1.391040 6.795205 5.592871 0.046614 1.388176 3.817644 1.933206 -5.116623 5.351572 29.059444 9.596601 -3.280902 -0.678845 -5.132352 22.133317 0.813389 -3.795986 -2.269454 -0.052883 -1.484230 4.082392 4.911014 1.214813 5.831210 4.899768 2.261086 4.148917 -1.477209 0.985426 -8.562810 -5.288726 -4.639220 -16.075005 2.721074 -5.143291 20.833556 -0.392559 -2.119509 9.770764 -7.178173 2.961321 -1.236199 -81.318570 5.709499 26.941499 11.148184 -19.139315 -1.883455 -0.371104 -0.768073 -4.438863 28.317834 24.279167 13.057698 -7.125000 0.000000 0.000000 -0.931710 57.993880 -0.296384 11.016668 -1.628663 -2.342088 69.342125 7.053261 18.975799 -14.812961 28.242258 -4.396109 1.003091 -0.059643 -4.283649 -19.658436 20.186661 -7.415357 7.125000 0.000000 0.000000 4.989654 -8.582364 4.205627
0.171224 17.965088 -9.795132 -6.712015 -3.792578 2.747185 -0.203815 4.218703 2.535219 -7.581187 -10.652757 -30.636235 1.427323 10.194943 30.190571 -1.454255 7.119000 6.205153 0.037042 1.236645 3.400280 1.956842 -5.118372 5.384979 29.132925 9.576421 -2.935175 -0.638037 -5.042253 21.890580 0.810359 -3.788593 -2.349363 -0.050379 -1.448838 3.984841 5.062164 1.288326 5.726896 4.885287 2.363506 4.167342 -1.569949 1.037191 -8.474891 -5.251692 -4.624552 -16.194177 2.770405 -5.127704 20.794074 -0.383099 -2.104262 9.780279 -7.180347 2.967755 -1.237226 -81.311566 5.678330 26.952498 11.034352 -18.962603 -1.843830 -0.371937 -0.769957 -4.721945 28.403093 24.222628 13.077398 -7.125000 0.000000 0.000000 -0.811787 57.952700 -0.257430 11.008588 -1.619012 -2.338937 69.354805 7.174851 19.103268 -14.959818 28.430295 -4.468409 1.000309 -0.061536 -4.324195 -19.658562 20.288646 -7.450471 7.125000 0.000000 0.000000 4.999392 -8.473905 4.224659
0.174836 17.953005 -9.700322 -6.824957 -3.902741 2.852640 -0.282399 4.182958 2.485035 -7.293227 -10.705044 -30.611496 1.056205 9.685020 28.463637 -1.559311 7.606798 6.858815 0.023167 0.650358 1.788285 1.979635 -5.119365 5.417411 29.196827 9.551856 -2.605534 -0.609926 -4.976042 21.720345 0.789856 -3.739207 -2.494026 -0.046146 -1.384841 3.808492 5.212129 1.375130 5.685080 4.839277 2.489662 4.120684 -1.683688 1.094784 -8.459237 -5.173203 -4.622149 -16.223201 2.822966 -5.151516 20.769906 -0.382959 -2.103011 9.776883 -7.177810 2.974292 -1.237223 -81.243066 5.750604 27.039370 10.953006 -18.835269 -1.815639 -0.365969 -0.771669 -4.812336 28.166912 24.321500 12.998508 -7.125000 0.000000 0.000000 -1.117165 58.004789 -0.356718 11.003300 -1.615372 -2.338615 69.403383 7.166802 19.122507 -15.102505 28.615814 -4.540467 0.997284 -0.066588 -4.345184 -19.601900 20.458911 -7.487449 7.125000 0.000000 0.000000 5.051224 -8.299731 4.286529
0.178276 17.939859 -9.604970 -6.929639 -3.997894 2.943523 -0.366693 4.146684 2.431849 -7.021558 -10.762371 -30.571849 0.686707 9.149511 26.681499 -1.691227 8.199882 7.539044 0.006528 -0.215033 -0.590635 2.001886 -5.119873 5.449217 29.254579 9.524476 -2.286221 -0.589967 -4.925165 21.596654 0.758136 -3.662863 -2.680259 -0.040804 -1.302481 3.581557 5.361331 1.470467 5.683386 4.773026 2.631055 4.032245 -1.810908 1.156117 -8.489976 -5.068100 -4.627620 -16.194353 2.877601 -5.200621 20.755570 -0.388802 -2.110746 9.765197 -7.172248 2.980894 -1.236558 -81.135088 5.889286 27.174951 10.892515 -18.739634 -1.794788 -0.355635 -0.773272 -4.779023 27.724372 24.520142 12.856326 -7.125000 0.000000 0.000000 -1.695576 58.116754 -0.544755 10.999804 -1.615591 -2.340110 69.475007 7.075529 19.072266 -15.242515 28.799717 -4.612370 0.994103 -0.073667 -4.353617 -19.508781 20.673010 -7.525624 7.125000 0.000000 0.000000 5.130078 -8.083369 4.375901
0.181265 17.921037 -9.508357 -6.986304 -4.092829 3.031355 -0.453658 4.113013 2.373646 -6.766574 -10.899475 -30.522427 0.354296 8.609156 24.942181 -1.847527 8.872284 8.132369 0.088444 -1.480927 -4.082496 2.025444 -5.124515 5.486666 29.248584 9.440404 -1.982323 -0.562462 -4.863752 21.433436 0.731747 -3.592207 -2.772784 -0.036863 -1.237880 3.403606 5.444214 1.552949 5.699010 4.701194 2.749742 3.937713 -1.900256 1.207858 -8.540441 -4.964027 -4.629488 -16.224373 2.919679 -5.235602 20.763379 -0.396633 -2.112968 9.769959 -7.168239 2.988973 -1.234418 -81.055131 5.976999 27.110313 10.791317 -18.577729 -1.762243 -0.351570 -0.761786 -4.468666 27.312141 24.154534 12.471257 -7.125000 0.000000 0.000000 -2.041403 57.619897 -0.627322 10.998153 -1.614287 -2.338118 69.527076 7.060298 19.085139 -15.328061 28.911652 -4.657392 0.990429 -0.075503 -4.370676 -19.415434 20.739775 -7.510974 7.125000 0.000000 0.000000 5.197409 -8.025348 4.439696
